<svg version="1.0" xmlns="http://www.w3.org/2000/svg" width="164.000000" height="206.000000" preserveAspectRatio="xMidYMid meet"><rect id="backgroundrect" width="100%" height="100%" x="0" y="0" fill="none" stroke="none"/>


<g class="currentLayer" style=""><title>Layer 1</title><g transform="translate(0, 206) scale(0.1, -0.1)" fill="#009899" stroke="none" id="svg_1" class="" opacity="1" fill-opacity="1">
<path d="M524.3224010467529,1689.85791015625 c-156,-156 -297,-303 -314,-328 c-38,-57 -86,-168 -79,-186 c3,-7 0,-14 -7,-17 c-8,-2 -12,-40 -12,-128 c1,-115 3,-130 32,-201 c17,-42 51,-105 76,-140 c25,-35 169,-186 319,-336 l273,-272 l294,294 c166,166 309,318 328,348 c107,172 117,380 27,566 c-35,72 -58,98 -338,380 c-165,166 -304,302 -308,302 c-5,0 -136,-127 -291,-282 zm153,57 c-7,-9 -15,-13 -19,-10 c-3,3 1,10 9,15 c21,14 24,12 10,-5 zm26,-29 c8,-8 11,-17 6,-20 c-4,-2 -13,4 -20,15 c-14,22 -7,25 14,5 zm219,-136 l100,-100 l-100,-100 c-55,-55 -102,-100 -105,-100 c-12,1 -200,189 -200,201 c0,16 180,199 195,199 c6,0 55,-45 110,-100 zm-405,5 c-7,-9 -15,-13 -19,-10 c-3,3 1,10 9,15 c21,14 24,12 10,-5 zm57,-367 l203,-203 l0,-207 c0,-114 -3,-209 -8,-212 c-7,-4 -49,33 -230,206 c-54,53 -97,86 -104,82 c-6,-4 -8,-3 -5,4 c4,5 -17,29 -45,53 c-29,24 -60,50 -69,59 c-38,36 -81,71 -84,68 c-12,-12 442,-501 456,-492 c5,3 8,0 7,-8 c-2,-7 3,-12 9,-11 c7,2 12,-3 10,-10 c-1,-6 4,-11 11,-9 c8,1 11,-1 8,-6 c-3,-5 6,-20 19,-32 c24,-22 25,-29 25,-142 c0,-65 -4,-118 -8,-118 c-4,0 -119,111 -254,248 c-174,175 -253,261 -271,297 c-42,84 -58,153 -56,241 c1,45 -1,86 -5,93 c-4,6 -3,11 2,11 c6,0 13,15 16,33 c10,54 62,149 111,205 c25,28 50,52 53,52 c4,0 98,-91 209,-202 zm817,40 c82,-163 70,-361 -31,-510 c-19,-29 -120,-139 -224,-243 c-105,-105 -186,-195 -182,-200 c4,-4 3,-5 -3,-2 c-6,3 -26,-9 -44,-28 c-19,-20 -28,-35 -20,-35 c7,0 11,-2 8,-5 c-3,-3 -13,-3 -22,1 c-14,5 -16,24 -16,123 l0,116 l93,95 c89,93 163,172 275,293 c31,33 50,62 46,69 c-4,6 -3,8 3,5 c9,-6 95,84 118,123 c19,32 -247,-203 -408,-360 c-59,-58 -112,-106 -117,-108 c-6,-2 -10,77 -10,210 l0,213 l80,80 c44,44 78,85 75,92 c-2,7 1,10 8,8 c7,-3 63,47 126,110 l115,115 l48,-47 c27,-27 64,-78 82,-115 zm-869,104 c-3,-3 -11,0 -18,7 c-9,10 -8,11 6,5 c10,-3 15,-9 12,-12 zm180,-122 c-3,-5 -12,-10 -18,-10 c-7,0 -6,4 3,10 c19,12 23,12 15,0 zm-20,-38 c-3,-3 -11,0 -18,7 c-9,10 -8,11 6,5 c10,-3 15,-9 12,-12 z" id="svg_2" opacity="1" fill="#009899" fill-opacity="1"/>
</g></g></svg>